# xmcd
#
# Track frame offsets: 
#        150
#        15269
#        40305
#        65335
#        86582
#        113224
#        140763
#        158749
#        196773
#        210651
#        234345
#        247197
#        261932
#        275936
#        287831
#        317895
#        332569
#
# Disc length: 4672 seconds
#
# Revision: 0
# Processed by: cddbd v1.5.2PL0 Copyright (c) Steve Scherf et al.
# Submitted via: ExactAudioCopy v0.99pb4
#
DISCID=fc123e11
DTITLE=A Quila - A Quila
DYEAR=1900
DGENRE=Blues
TTITLE0=Black Magic Woman
TTITLE1=Malted Milk
TTITLE2=Waiting For The Day
TTITLE3=Road To Hell
TTITLE4=Ain't No Sunshine
TTITLE5=Hey Joe
TTITLE6=Mustang Sally
TTITLE7=Unchain My Heart
TTITLE8=Orange Blossom Special
TTITLE9=All ALong The Watchtower
TTITLE10=Mean Woman Blues
TTITLE11=Long Tall Sally
TTITLE12=Roll Ovr Beethoven
TTITLE13=Tutty Frutti
TTITLE14=Need Your Love
TTITLE15=Sweet Little Sixteen
TTITLE16=Johnny Be Good
EXTD=
EXTT0=
EXTT1=
EXTT2=
EXTT3=
EXTT4=
EXTT5=
EXTT6=
EXTT7=
EXTT8=
EXTT9=
EXTT10=
EXTT11=
EXTT12=
EXTT13=
EXTT14=
EXTT15=
EXTT16=
PLAYORDER=
